<svg width="24" height="24" viewBox="0 0 24 24" fill="none" xmlns="http://www.w3.org/2000/svg">
<g opacity="0.3">
<path fill-rule="evenodd" clip-rule="evenodd" d="M9.25 21C9.25 20.5858 9.58579 20.25 10 20.25H14C14.4142 20.25 14.75 20.5858 14.75 21C14.75 21.4142 14.4142 21.75 14 21.75H10C9.58579 21.75 9.25 21.4142 9.25 21Z" fill="black"/>
<path fill-rule="evenodd" clip-rule="evenodd" d="M14.5 14.7453C14.5 14.255 14.7397 13.7956 15.1419 13.515C16.5704 12.5186 17.5 10.8677 17.5 9C17.5 5.96243 15.0376 3.5 12 3.5C8.96243 3.5 6.5 5.96243 6.5 9C6.5 10.8677 7.4296 12.5186 8.85815 13.515C9.26033 13.7956 9.5 14.255 9.5 14.7453V16C9.5 16.8284 10.1716 17.5 11 17.5H13C13.8284 17.5 14.5 16.8284 14.5 16V14.7453ZM8 14.7453C6.18652 13.4804 5 11.3787 5 9C5 5.13401 8.13401 2 12 2C15.866 2 19 5.13401 19 9C19 11.3787 17.8135 13.4804 16 14.7453V16C16 17.6569 14.6569 19 13 19H11C9.34315 19 8 17.6569 8 16V14.7453Z" fill="black"/>
</g>
</svg>
