<svg width="20" height="15" viewBox="0 0 20 15" fill="none" xmlns="http://www.w3.org/2000/svg">
<path d="M18.4375 2.68746H1.56249C1.25197 2.68746 1 2.30943 1 1.84373C1 1.37796 1.25202 1 1.56249 1H18.4375C18.748 1 19 1.37803 19 1.84373C19 2.30943 18.748 2.68746 18.4375 2.68746Z" fill="#A6B1C2" stroke="#A6B1C2"/>
<path d="M1.56249 6.90625H18.4375C18.748 6.90625 19 7.28428 19 7.74998C19 8.21568 18.748 8.59371 18.4375 8.59371H1.56249C1.25197 8.59371 1 8.21568 1 7.74998C1 7.28428 1.25197 6.90625 1.56249 6.90625Z" fill="#A6B1C2" stroke="#A6B1C2"/>
<path d="M1.5625 12.8125H12.8125C13.123 12.8125 13.375 13.1905 13.375 13.6562C13.375 14.122 13.123 14.5 12.8125 14.5H1.5625C1.25198 14.5 1.00001 14.1219 1.00001 13.6562C0.999961 13.1905 1.25198 12.8125 1.5625 12.8125Z" fill="#A6B1C2" stroke="#A6B1C2"/>
</svg>
