<svg width="26" height="26" viewBox="0 0 26 26" fill="none" xmlns="http://www.w3.org/2000/svg">
<g opacity="0.4">
<path fill-rule="evenodd" clip-rule="evenodd" d="M16.9556 20H21.5413C22.3224 20 22.9556 19.3668 22.9556 18.5858C22.9556 18.2107 22.8066 17.851 22.5413 17.5858L21.5413 16.5858C21.1663 16.2107 20.9556 15.702 20.9556 15.1716L20.9556 11.9707C20.9556 7.56859 17.387 4 12.9849 4C8.57345 4 5.001 7.58319 5.01424 11.9946L5.02371 15.1476C5.02534 15.6922 4.80485 16.2139 4.41316 16.5922L3.3842 17.586C3.11027 17.8506 2.95557 18.2151 2.95557 18.5959C2.95557 19.3714 3.58419 20 4.35965 20H8.95557C8.95557 22.2091 10.7464 24 12.9556 24C15.1647 24 16.9556 22.2091 16.9556 20ZM20.4807 17.6464L21.3342 18.5H4.59703L5.45524 17.6711C6.1407 17.009 6.52656 16.0961 6.5237 15.1431L6.51423 11.9901C6.50348 8.40887 9.40364 5.5 12.9849 5.5C16.5585 5.5 19.4556 8.39702 19.4556 11.9707L19.4556 15.1716C19.4556 16.0998 19.8243 16.9901 20.4807 17.6464ZM15.4556 20H10.4556C10.4556 21.3807 11.5749 22.5 12.9556 22.5C14.3363 22.5 15.4556 21.3807 15.4556 20Z" fill="black"/>
</g>
<circle cx="20" cy="6" r="5.5" fill="#159945" stroke="white"/>
</svg>
