<svg width="24" height="24" viewBox="0 0 24 24" fill="none" xmlns="http://www.w3.org/2000/svg">
<g opacity="0.3">
<path d="M15.7331 4.67337C15.928 4.29095 16.3981 4.13609 16.7623 4.36319C18.2476 5.28939 19.4358 6.63223 20.1733 8.23205C21.0196 10.0679 21.2233 12.1353 20.7513 14.101C20.2794 16.0667 19.1594 17.8163 17.5719 19.0678C15.9843 20.3194 14.0216 21 12 21C9.97845 21 8.01575 20.3194 6.42817 19.0679C4.8406 17.8163 3.72061 16.0667 3.24868 14.101C2.77675 12.1353 2.98036 10.0679 3.82671 8.23207C4.56423 6.63225 5.7524 5.2894 7.2377 4.3632C7.60189 4.1361 8.07203 4.29096 8.26689 4.67338C8.46174 5.0558 8.30694 5.52046 7.9469 5.75409C6.77094 6.51718 5.82951 7.60015 5.23822 8.88278C4.53803 10.4016 4.36958 12.1119 4.76001 13.7382C5.15044 15.3644 6.07701 16.8119 7.39041 17.8473C8.70382 18.8827 10.3276 19.4457 12 19.4457C13.6725 19.4457 15.2962 18.8826 16.6096 17.8472C17.923 16.8118 18.8496 15.3644 19.24 13.7382C19.6304 12.1119 19.462 10.4016 18.7618 8.88277C18.1705 7.60014 17.2291 6.51717 16.0531 5.75408C15.6931 5.52045 15.5383 5.05579 15.7331 4.67337Z" fill="black"/>
<path fill-rule="evenodd" clip-rule="evenodd" d="M12 2.25C12.4142 2.25 12.75 2.58579 12.75 3V8C12.75 8.41421 12.4142 8.75 12 8.75C11.5858 8.75 11.25 8.41421 11.25 8V3C11.25 2.58579 11.5858 2.25 12 2.25Z" fill="black"/>
</g>
</svg>
